<mxfile host="app.diagrams.net" modified="2024-03-25T20:41:52.224Z" agent="Mozilla/5.0 (Windows NT 10.0; Win64; x64) AppleWebKit/537.36 (KHTML, like Gecko) Chrome/122.0.0.0 Safari/537.36" etag="SuxcEuN9ggcLQg8wJjl5" version="24.1.0" type="device">
  <diagram name="Strona-1" id="Rb3qtv0PFc3O9XU-Ekxh">
    <mxGraphModel dx="1509" dy="821" grid="1" gridSize="10" guides="1" tooltips="1" connect="1" arrows="1" fold="1" page="1" pageScale="1" pageWidth="827" pageHeight="1169" math="0" shadow="0">
      <root>
        <mxCell id="0" />
        <mxCell id="1" parent="0" />
        <mxCell id="z22SKGCjVlnt71E5X0xT-3" value="" style="rounded=0;whiteSpace=wrap;html=1;" vertex="1" parent="1">
          <mxGeometry x="120" y="80" width="640" height="800" as="geometry" />
        </mxCell>
        <mxCell id="z22SKGCjVlnt71E5X0xT-4" value="" style="rounded=0;whiteSpace=wrap;html=1;" vertex="1" parent="1">
          <mxGeometry x="160" y="120" width="280" height="730" as="geometry" />
        </mxCell>
        <mxCell id="z22SKGCjVlnt71E5X0xT-5" value="" style="rounded=0;whiteSpace=wrap;html=1;" vertex="1" parent="1">
          <mxGeometry x="440" y="120" width="280" height="730" as="geometry" />
        </mxCell>
        <mxCell id="z22SKGCjVlnt71E5X0xT-6" value="&lt;font face=&quot;Verdana&quot;&gt;Klient&lt;/font&gt;" style="rounded=0;whiteSpace=wrap;html=1;" vertex="1" parent="1">
          <mxGeometry x="160" y="120" width="280" height="20" as="geometry" />
        </mxCell>
        <mxCell id="z22SKGCjVlnt71E5X0xT-7" value="&lt;font face=&quot;Verdana&quot;&gt;System&lt;/font&gt;" style="rounded=0;whiteSpace=wrap;html=1;" vertex="1" parent="1">
          <mxGeometry x="440" y="120" width="280" height="20" as="geometry" />
        </mxCell>
        <mxCell id="z22SKGCjVlnt71E5X0xT-8" value="" style="endArrow=none;html=1;rounded=0;" edge="1" parent="1">
          <mxGeometry width="50" height="50" relative="1" as="geometry">
            <mxPoint x="280" y="85" as="sourcePoint" />
            <mxPoint x="280" y="80" as="targetPoint" />
          </mxGeometry>
        </mxCell>
        <mxCell id="z22SKGCjVlnt71E5X0xT-9" value="" style="endArrow=none;html=1;rounded=0;" edge="1" parent="1">
          <mxGeometry width="50" height="50" relative="1" as="geometry">
            <mxPoint x="270" y="95" as="sourcePoint" />
            <mxPoint x="280" y="85" as="targetPoint" />
          </mxGeometry>
        </mxCell>
        <mxCell id="z22SKGCjVlnt71E5X0xT-10" value="" style="endArrow=none;html=1;rounded=0;" edge="1" parent="1">
          <mxGeometry width="50" height="50" relative="1" as="geometry">
            <mxPoint x="120" y="95" as="sourcePoint" />
            <mxPoint x="270" y="95" as="targetPoint" />
          </mxGeometry>
        </mxCell>
        <mxCell id="z22SKGCjVlnt71E5X0xT-11" value="&lt;font face=&quot;Verdana&quot; style=&quot;font-size: 9px;&quot;&gt;act składanie_zamówienia_klient&lt;/font&gt;" style="text;html=1;align=left;verticalAlign=bottom;whiteSpace=wrap;rounded=0;textShadow=0;fontStyle=0" vertex="1" parent="1">
          <mxGeometry x="122" y="75.4" width="168" height="20" as="geometry" />
        </mxCell>
        <mxCell id="z22SKGCjVlnt71E5X0xT-12" value="" style="edgeStyle=orthogonalEdgeStyle;rounded=0;orthogonalLoop=1;jettySize=auto;html=1;endArrow=open;endFill=0;" edge="1" parent="1" source="z22SKGCjVlnt71E5X0xT-13" target="z22SKGCjVlnt71E5X0xT-15">
          <mxGeometry relative="1" as="geometry" />
        </mxCell>
        <mxCell id="z22SKGCjVlnt71E5X0xT-13" value="" style="ellipse;whiteSpace=wrap;html=1;aspect=fixed;fillColor=#000000;" vertex="1" parent="1">
          <mxGeometry x="290" y="150" width="20" height="20" as="geometry" />
        </mxCell>
        <mxCell id="z22SKGCjVlnt71E5X0xT-14" value="" style="edgeStyle=orthogonalEdgeStyle;rounded=0;orthogonalLoop=1;jettySize=auto;html=1;endArrow=open;endFill=0;" edge="1" parent="1" source="z22SKGCjVlnt71E5X0xT-15" target="z22SKGCjVlnt71E5X0xT-18">
          <mxGeometry relative="1" as="geometry" />
        </mxCell>
        <mxCell id="z22SKGCjVlnt71E5X0xT-15" value="" style="rounded=1;whiteSpace=wrap;html=1;fillColor=#FCF2E3;gradientColor=#E8D7BE;gradientDirection=east;" vertex="1" parent="1">
          <mxGeometry x="240" y="200" width="120" height="50" as="geometry" />
        </mxCell>
        <mxCell id="z22SKGCjVlnt71E5X0xT-16" value="&lt;font style=&quot;font-size: 8px;&quot; face=&quot;Verdana&quot;&gt;Dodanie wybranych produktów do koszyka&lt;/font&gt;" style="text;html=1;align=center;verticalAlign=bottom;whiteSpace=wrap;rounded=0;textShadow=0;fontStyle=0" vertex="1" parent="1">
          <mxGeometry x="240" y="200" width="120" height="35" as="geometry" />
        </mxCell>
        <mxCell id="z22SKGCjVlnt71E5X0xT-17" value="" style="rounded=0;orthogonalLoop=1;jettySize=auto;html=1;endArrow=open;endFill=0;exitX=1;exitY=0.5;exitDx=0;exitDy=0;entryX=0;entryY=0.25;entryDx=0;entryDy=0;" edge="1" parent="1" source="z22SKGCjVlnt71E5X0xT-19" target="z22SKGCjVlnt71E5X0xT-55">
          <mxGeometry relative="1" as="geometry" />
        </mxCell>
        <mxCell id="z22SKGCjVlnt71E5X0xT-18" value="" style="whiteSpace=wrap;html=1;fillColor=#FCF2E3;rounded=1;gradientColor=#E8D7BE;gradientDirection=east;" vertex="1" parent="1">
          <mxGeometry x="240" y="280" width="120" height="50" as="geometry" />
        </mxCell>
        <mxCell id="z22SKGCjVlnt71E5X0xT-19" value="&lt;span style=&quot;font-family: Verdana; font-size: 8px;&quot;&gt;Wybranie opcji podsumowania koszyka&lt;/span&gt;" style="text;html=1;align=center;verticalAlign=bottom;whiteSpace=wrap;rounded=0;textShadow=0;fontStyle=0" vertex="1" parent="1">
          <mxGeometry x="240" y="280" width="120" height="35" as="geometry" />
        </mxCell>
        <mxCell id="z22SKGCjVlnt71E5X0xT-20" value="" style="rounded=0;orthogonalLoop=1;jettySize=auto;html=1;endArrow=open;endFill=0;exitX=1;exitY=0.75;exitDx=0;exitDy=0;entryX=0;entryY=0;entryDx=0;entryDy=0;" edge="1" parent="1" source="z22SKGCjVlnt71E5X0xT-51" target="z22SKGCjVlnt71E5X0xT-25">
          <mxGeometry relative="1" as="geometry" />
        </mxCell>
        <mxCell id="z22SKGCjVlnt71E5X0xT-21" value="" style="whiteSpace=wrap;html=1;fillColor=#FCF2E3;rounded=1;gradientColor=#E8D7BE;gradientDirection=east;" vertex="1" parent="1">
          <mxGeometry x="240" y="360" width="120" height="40" as="geometry" />
        </mxCell>
        <mxCell id="z22SKGCjVlnt71E5X0xT-22" value="&lt;font style=&quot;font-size: 8px;&quot; face=&quot;Verdana&quot;&gt;Weryfikacja koszyka&lt;/font&gt;" style="text;html=1;align=center;verticalAlign=bottom;whiteSpace=wrap;rounded=0;textShadow=0;fontStyle=0" vertex="1" parent="1">
          <mxGeometry x="240" y="360" width="120" height="20" as="geometry" />
        </mxCell>
        <mxCell id="z22SKGCjVlnt71E5X0xT-23" value="" style="rounded=0;orthogonalLoop=1;jettySize=auto;html=1;endArrow=open;endFill=0;entryX=1;entryY=0;entryDx=0;entryDy=0;" edge="1" parent="1" source="z22SKGCjVlnt71E5X0xT-24" target="z22SKGCjVlnt71E5X0xT-28">
          <mxGeometry relative="1" as="geometry" />
        </mxCell>
        <mxCell id="z22SKGCjVlnt71E5X0xT-24" value="" style="whiteSpace=wrap;html=1;fillColor=#FCF2E3;rounded=1;gradientColor=#E8D7BE;gradientDirection=east;" vertex="1" parent="1">
          <mxGeometry x="520" y="480" width="120" height="50" as="geometry" />
        </mxCell>
        <mxCell id="z22SKGCjVlnt71E5X0xT-25" value="&lt;font style=&quot;font-size: 8px;&quot; face=&quot;Verdana&quot;&gt;Wyświetlenie formularza wysyłki i płatności&lt;/font&gt;" style="text;html=1;align=center;verticalAlign=bottom;whiteSpace=wrap;rounded=0;textShadow=0;fontStyle=0" vertex="1" parent="1">
          <mxGeometry x="520" y="495" width="120" height="20" as="geometry" />
        </mxCell>
        <mxCell id="z22SKGCjVlnt71E5X0xT-26" value="" style="rounded=0;orthogonalLoop=1;jettySize=auto;html=1;endArrow=open;endFill=0;exitX=1;exitY=0.75;exitDx=0;exitDy=0;entryX=0;entryY=1;entryDx=0;entryDy=0;" edge="1" parent="1" source="z22SKGCjVlnt71E5X0xT-50" target="z22SKGCjVlnt71E5X0xT-34">
          <mxGeometry relative="1" as="geometry" />
        </mxCell>
        <mxCell id="z22SKGCjVlnt71E5X0xT-27" value="" style="whiteSpace=wrap;html=1;fillColor=#FCF2E3;rounded=1;gradientColor=#E8D7BE;gradientDirection=east;" vertex="1" parent="1">
          <mxGeometry x="240" y="520" width="120" height="50" as="geometry" />
        </mxCell>
        <mxCell id="z22SKGCjVlnt71E5X0xT-28" value="&lt;font style=&quot;font-size: 8px;&quot; face=&quot;Verdana&quot;&gt;Wypełnienie formularza wysyłki i płatności&lt;/font&gt;" style="text;html=1;align=center;verticalAlign=bottom;whiteSpace=wrap;rounded=0;textShadow=0;fontStyle=0" vertex="1" parent="1">
          <mxGeometry x="240" y="535" width="120" height="20" as="geometry" />
        </mxCell>
        <mxCell id="z22SKGCjVlnt71E5X0xT-29" value="" style="rhombus;whiteSpace=wrap;html=1;fillColor=#FCF2E3;rounded=0;gradientColor=#E8D7BE;gradientDirection=east;" vertex="1" parent="1">
          <mxGeometry x="500" y="605" width="30" height="40" as="geometry" />
        </mxCell>
        <mxCell id="z22SKGCjVlnt71E5X0xT-30" value="&lt;font face=&quot;Verdana&quot;&gt;&lt;span style=&quot;font-size: 8px;&quot;&gt;Czy płatność udana?&lt;/span&gt;&lt;/font&gt;" style="text;html=1;align=center;verticalAlign=bottom;whiteSpace=wrap;rounded=0;textShadow=0;fontStyle=0" vertex="1" parent="1">
          <mxGeometry x="450" y="585" width="120" height="20" as="geometry" />
        </mxCell>
        <mxCell id="z22SKGCjVlnt71E5X0xT-31" value="" style="whiteSpace=wrap;html=1;fillColor=#FCF2E3;rounded=1;gradientColor=#E8D7BE;gradientDirection=east;" vertex="1" parent="1">
          <mxGeometry x="580" y="595" width="120" height="50" as="geometry" />
        </mxCell>
        <mxCell id="z22SKGCjVlnt71E5X0xT-32" value="&lt;font style=&quot;font-size: 8px;&quot; face=&quot;Verdana&quot;&gt;Wyświetlenie komunikatu o błędzie podczas płatności&lt;/font&gt;" style="text;html=1;align=center;verticalAlign=bottom;whiteSpace=wrap;rounded=0;textShadow=0;fontStyle=0" vertex="1" parent="1">
          <mxGeometry x="580" y="610" width="120" height="20" as="geometry" />
        </mxCell>
        <mxCell id="z22SKGCjVlnt71E5X0xT-33" value="" style="endArrow=open;html=1;rounded=0;exitX=1;exitY=0.5;exitDx=0;exitDy=0;entryX=0;entryY=0.75;entryDx=0;entryDy=0;endFill=0;" edge="1" parent="1" source="z22SKGCjVlnt71E5X0xT-29" target="z22SKGCjVlnt71E5X0xT-32">
          <mxGeometry width="50" height="50" relative="1" as="geometry">
            <mxPoint x="470" y="550" as="sourcePoint" />
            <mxPoint x="520" y="500" as="targetPoint" />
          </mxGeometry>
        </mxCell>
        <mxCell id="z22SKGCjVlnt71E5X0xT-34" value="&lt;font face=&quot;Verdana&quot;&gt;&lt;span style=&quot;font-size: 8px;&quot;&gt;Nie&lt;/span&gt;&lt;/font&gt;" style="text;html=1;align=center;verticalAlign=bottom;whiteSpace=wrap;rounded=0;textShadow=0;fontStyle=0" vertex="1" parent="1">
          <mxGeometry x="500" y="605" width="120" height="20" as="geometry" />
        </mxCell>
        <mxCell id="z22SKGCjVlnt71E5X0xT-35" value="" style="whiteSpace=wrap;html=1;fillColor=#FCF2E3;rounded=1;gradientColor=#E8D7BE;gradientDirection=east;" vertex="1" parent="1">
          <mxGeometry x="460" y="675" width="120" height="40" as="geometry" />
        </mxCell>
        <mxCell id="z22SKGCjVlnt71E5X0xT-36" value="&lt;font style=&quot;font-size: 8px;&quot; face=&quot;Verdana&quot;&gt;Przetworzenie zamówienia&lt;/font&gt;" style="text;html=1;align=center;verticalAlign=bottom;whiteSpace=wrap;rounded=0;textShadow=0;fontStyle=0" vertex="1" parent="1">
          <mxGeometry x="460" y="676" width="120" height="20" as="geometry" />
        </mxCell>
        <mxCell id="z22SKGCjVlnt71E5X0xT-37" value="" style="endArrow=open;html=1;rounded=0;exitX=0.5;exitY=1;exitDx=0;exitDy=0;entryX=0.459;entryY=0.003;entryDx=0;entryDy=0;endFill=0;entryPerimeter=0;" edge="1" parent="1" source="z22SKGCjVlnt71E5X0xT-29" target="z22SKGCjVlnt71E5X0xT-35">
          <mxGeometry width="50" height="50" relative="1" as="geometry">
            <mxPoint x="540" y="635" as="sourcePoint" />
            <mxPoint x="590" y="635" as="targetPoint" />
          </mxGeometry>
        </mxCell>
        <mxCell id="z22SKGCjVlnt71E5X0xT-38" value="&lt;font face=&quot;Verdana&quot;&gt;&lt;span style=&quot;font-size: 8px;&quot;&gt;Tak&lt;/span&gt;&lt;/font&gt;" style="text;html=1;align=center;verticalAlign=bottom;whiteSpace=wrap;rounded=0;textShadow=0;fontStyle=0" vertex="1" parent="1">
          <mxGeometry x="470" y="645" width="120" height="20" as="geometry" />
        </mxCell>
        <mxCell id="z22SKGCjVlnt71E5X0xT-39" value="" style="ellipse;whiteSpace=wrap;html=1;aspect=fixed;fillColor=#FCF2E3;gradientColor=#E8D7BE;gradientDirection=east;" vertex="1" parent="1">
          <mxGeometry x="630" y="690" width="20" height="20" as="geometry" />
        </mxCell>
        <mxCell id="z22SKGCjVlnt71E5X0xT-40" value="" style="ellipse;whiteSpace=wrap;html=1;aspect=fixed;fillColor=#000000;" vertex="1" parent="1">
          <mxGeometry x="636" y="696" width="8" height="8" as="geometry" />
        </mxCell>
        <mxCell id="z22SKGCjVlnt71E5X0xT-41" value="" style="whiteSpace=wrap;html=1;fillColor=#FCF2E3;rounded=1;gradientColor=#E8D7BE;gradientDirection=east;" vertex="1" parent="1">
          <mxGeometry x="460" y="740" width="120" height="50" as="geometry" />
        </mxCell>
        <mxCell id="z22SKGCjVlnt71E5X0xT-42" value="&lt;font style=&quot;font-size: 8px;&quot; face=&quot;Verdana&quot;&gt;Wysłanie potwierdzenia na adres e-mail klienta&lt;/font&gt;" style="text;html=1;align=center;verticalAlign=bottom;whiteSpace=wrap;rounded=0;textShadow=0;fontStyle=0" vertex="1" parent="1">
          <mxGeometry x="460" y="755" width="120" height="20" as="geometry" />
        </mxCell>
        <mxCell id="z22SKGCjVlnt71E5X0xT-43" value="" style="edgeStyle=orthogonalEdgeStyle;rounded=0;orthogonalLoop=1;jettySize=auto;html=1;endArrow=open;endFill=0;exitX=0.5;exitY=1;exitDx=0;exitDy=0;entryX=0.5;entryY=0;entryDx=0;entryDy=0;" edge="1" parent="1" source="z22SKGCjVlnt71E5X0xT-35" target="z22SKGCjVlnt71E5X0xT-41">
          <mxGeometry relative="1" as="geometry">
            <mxPoint x="320" y="445" as="sourcePoint" />
            <mxPoint x="320" y="485" as="targetPoint" />
          </mxGeometry>
        </mxCell>
        <mxCell id="z22SKGCjVlnt71E5X0xT-44" value="" style="edgeStyle=orthogonalEdgeStyle;rounded=0;orthogonalLoop=1;jettySize=auto;html=1;endArrow=open;endFill=0;exitX=0.5;exitY=1;exitDx=0;exitDy=0;entryX=0.5;entryY=0;entryDx=0;entryDy=0;" edge="1" parent="1" source="z22SKGCjVlnt71E5X0xT-41" target="z22SKGCjVlnt71E5X0xT-45">
          <mxGeometry relative="1" as="geometry">
            <mxPoint x="530" y="745" as="sourcePoint" />
            <mxPoint x="520" y="865" as="targetPoint" />
          </mxGeometry>
        </mxCell>
        <mxCell id="z22SKGCjVlnt71E5X0xT-45" value="" style="ellipse;whiteSpace=wrap;html=1;aspect=fixed;fillColor=#FCF2E3;gradientColor=#E8D7BE;gradientDirection=east;" vertex="1" parent="1">
          <mxGeometry x="510" y="810" width="20" height="20" as="geometry" />
        </mxCell>
        <mxCell id="z22SKGCjVlnt71E5X0xT-46" value="" style="ellipse;whiteSpace=wrap;html=1;aspect=fixed;fillColor=#000000;" vertex="1" parent="1">
          <mxGeometry x="516" y="816" width="8" height="8" as="geometry" />
        </mxCell>
        <mxCell id="z22SKGCjVlnt71E5X0xT-47" value="" style="edgeStyle=orthogonalEdgeStyle;rounded=0;orthogonalLoop=1;jettySize=auto;html=1;endArrow=open;endFill=0;exitX=0.5;exitY=1;exitDx=0;exitDy=0;entryX=0.5;entryY=0;entryDx=0;entryDy=0;" edge="1" parent="1" source="z22SKGCjVlnt71E5X0xT-31" target="z22SKGCjVlnt71E5X0xT-39">
          <mxGeometry relative="1" as="geometry">
            <mxPoint x="530" y="745" as="sourcePoint" />
            <mxPoint x="530" y="785" as="targetPoint" />
          </mxGeometry>
        </mxCell>
        <mxCell id="z22SKGCjVlnt71E5X0xT-48" value="" style="whiteSpace=wrap;html=1;fillColor=#FCF2E3;rounded=1;gradientColor=#E8D7BE;gradientDirection=east;" vertex="1" parent="1">
          <mxGeometry x="240" y="600" width="120" height="40" as="geometry" />
        </mxCell>
        <mxCell id="z22SKGCjVlnt71E5X0xT-49" value="" style="edgeStyle=orthogonalEdgeStyle;rounded=0;orthogonalLoop=1;jettySize=auto;html=1;endArrow=open;endFill=0;entryX=0.5;entryY=0;entryDx=0;entryDy=0;exitX=0.5;exitY=1;exitDx=0;exitDy=0;" edge="1" parent="1" source="z22SKGCjVlnt71E5X0xT-27" target="z22SKGCjVlnt71E5X0xT-50">
          <mxGeometry relative="1" as="geometry">
            <mxPoint x="299.83" y="610" as="sourcePoint" />
            <mxPoint x="299.83" y="650" as="targetPoint" />
            <Array as="points" />
          </mxGeometry>
        </mxCell>
        <mxCell id="z22SKGCjVlnt71E5X0xT-50" value="&lt;font face=&quot;Verdana&quot;&gt;&lt;span style=&quot;font-size: 8px;&quot;&gt;Realizacja płatności&lt;/span&gt;&lt;/font&gt;" style="text;html=1;align=center;verticalAlign=bottom;whiteSpace=wrap;rounded=0;textShadow=0;fontStyle=0" vertex="1" parent="1">
          <mxGeometry x="240" y="600" width="120" height="20" as="geometry" />
        </mxCell>
        <mxCell id="z22SKGCjVlnt71E5X0xT-51" value="" style="whiteSpace=wrap;html=1;fillColor=#FCF2E3;rounded=1;gradientColor=#E8D7BE;gradientDirection=east;" vertex="1" parent="1">
          <mxGeometry x="240" y="430" width="120" height="55" as="geometry" />
        </mxCell>
        <mxCell id="z22SKGCjVlnt71E5X0xT-52" value="&lt;span style=&quot;font-family: Verdana; font-size: 8px;&quot;&gt;Wybranie opcji złożenia zamówienia&lt;/span&gt;" style="text;html=1;align=center;verticalAlign=bottom;whiteSpace=wrap;rounded=0;textShadow=0;fontStyle=0" vertex="1" parent="1">
          <mxGeometry x="240" y="430" width="120" height="35" as="geometry" />
        </mxCell>
        <mxCell id="z22SKGCjVlnt71E5X0xT-53" value="" style="edgeStyle=orthogonalEdgeStyle;rounded=0;orthogonalLoop=1;jettySize=auto;html=1;endArrow=open;endFill=0;entryX=0.5;entryY=0;entryDx=0;entryDy=0;exitX=0.5;exitY=1;exitDx=0;exitDy=0;" edge="1" parent="1" source="z22SKGCjVlnt71E5X0xT-21" target="z22SKGCjVlnt71E5X0xT-52">
          <mxGeometry relative="1" as="geometry">
            <mxPoint x="299.92" y="430" as="sourcePoint" />
            <mxPoint x="299.92" y="450" as="targetPoint" />
          </mxGeometry>
        </mxCell>
        <mxCell id="z22SKGCjVlnt71E5X0xT-55" value="" style="whiteSpace=wrap;html=1;fillColor=#FCF2E3;rounded=1;gradientColor=#E8D7BE;gradientDirection=east;" vertex="1" parent="1">
          <mxGeometry x="520" y="320" width="120" height="50" as="geometry" />
        </mxCell>
        <mxCell id="z22SKGCjVlnt71E5X0xT-56" value="&lt;font style=&quot;font-size: 8px;&quot; face=&quot;Verdana&quot;&gt;Wyświetlenie podsumowania koszyka&lt;/font&gt;" style="text;html=1;align=center;verticalAlign=bottom;whiteSpace=wrap;rounded=0;textShadow=0;fontStyle=0" vertex="1" parent="1">
          <mxGeometry x="530" y="335" width="100" height="20" as="geometry" />
        </mxCell>
        <mxCell id="z22SKGCjVlnt71E5X0xT-57" value="" style="rounded=0;orthogonalLoop=1;jettySize=auto;html=1;endArrow=open;endFill=0;exitX=0;exitY=0.75;exitDx=0;exitDy=0;entryX=1;entryY=0.75;entryDx=0;entryDy=0;" edge="1" parent="1" source="z22SKGCjVlnt71E5X0xT-55" target="z22SKGCjVlnt71E5X0xT-22">
          <mxGeometry relative="1" as="geometry">
            <mxPoint x="370" y="308" as="sourcePoint" />
            <mxPoint x="530" y="345" as="targetPoint" />
          </mxGeometry>
        </mxCell>
      </root>
    </mxGraphModel>
  </diagram>
</mxfile>
